<svg width="14" height="13" viewBox="0 0 14 13" fill="none" xmlns="http://www.w3.org/2000/svg">
<path d="M10.5938 1.45937V0.640625C10.5938 0.516305 10.5444 0.397076 10.4565 0.309169C10.3685 0.221261 10.2493 0.171875 10.125 0.171875C10.0007 0.171875 9.88145 0.221261 9.79354 0.309169C9.70564 0.397076 9.65625 0.516305 9.65625 0.640625V1.42188H4.34375V0.640625C4.34375 0.516305 4.29436 0.397076 4.20646 0.309169C4.11855 0.221261 3.99932 0.171875 3.875 0.171875C3.75068 0.171875 3.63145 0.221261 3.54354 0.309169C3.45564 0.397076 3.40625 0.516305 3.40625 0.640625V1.45937C2.70958 1.57205 2.07565 1.92872 1.61769 2.46568C1.15974 3.00263 0.907575 3.6849 0.90625 4.39062V9.85938C0.90625 10.2492 0.983039 10.6353 1.13223 10.9955C1.28143 11.3557 1.5001 11.6829 1.77578 11.9586C2.33253 12.5153 3.08764 12.8281 3.875 12.8281H10.125C10.5149 12.8281 10.9009 12.7513 11.2611 12.6021C11.6213 12.4529 11.9485 12.2343 12.2242 11.9586C12.4999 11.6829 12.7186 11.3557 12.8678 10.9955C13.017 10.6353 13.0938 10.2492 13.0938 9.85938V4.39062C13.0924 3.6849 12.8403 3.00263 12.3823 2.46568C11.9243 1.92872 11.2904 1.57205 10.5938 1.45937ZM4.75 10.2094H4.125C4.00068 10.2094 3.88145 10.16 3.79354 10.0721C3.70564 9.98417 3.65625 9.86494 3.65625 9.74062C3.65625 9.6163 3.70564 9.49708 3.79354 9.40917C3.88145 9.32126 4.00068 9.27187 4.125 9.27187H4.75C4.87432 9.27187 4.99355 9.32126 5.08146 9.40917C5.16936 9.49708 5.21875 9.6163 5.21875 9.74062C5.21875 9.86494 5.16936 9.98417 5.08146 10.0721C4.99355 10.16 4.87432 10.2094 4.75 10.2094ZM4.75 8.28437H4.125C4.00068 8.28437 3.88145 8.23499 3.79354 8.14708C3.70564 8.05917 3.65625 7.93994 3.65625 7.81562C3.65625 7.6913 3.70564 7.57208 3.79354 7.48417C3.88145 7.39626 4.00068 7.34687 4.125 7.34687H4.75C4.87432 7.34687 4.99355 7.39626 5.08146 7.48417C5.16936 7.57208 5.21875 7.6913 5.21875 7.81562C5.21875 7.93994 5.16936 8.05917 5.08146 8.14708C4.99355 8.23499 4.87432 8.28437 4.75 8.28437ZM7.31875 10.2094H6.69375C6.56943 10.2094 6.4502 10.16 6.36229 10.0721C6.27439 9.98417 6.225 9.86494 6.225 9.74062C6.225 9.6163 6.27439 9.49708 6.36229 9.40917C6.4502 9.32126 6.56943 9.27187 6.69375 9.27187H7.31875C7.44307 9.27187 7.5623 9.32126 7.65021 9.40917C7.73811 9.49708 7.7875 9.6163 7.7875 9.74062C7.7875 9.86494 7.73811 9.98417 7.65021 10.0721C7.5623 10.16 7.44307 10.2094 7.31875 10.2094ZM7.31875 8.28437H6.69375C6.56943 8.28437 6.4502 8.23499 6.36229 8.14708C6.27439 8.05917 6.225 7.93994 6.225 7.81562C6.225 7.6913 6.27439 7.57208 6.36229 7.48417C6.4502 7.39626 6.56943 7.34687 6.69375 7.34687H7.31875C7.44307 7.34687 7.5623 7.39626 7.65021 7.48417C7.73811 7.57208 7.7875 7.6913 7.7875 7.81562C7.7875 7.93994 7.73811 8.05917 7.65021 8.14708C7.5623 8.23499 7.44307 8.28437 7.31875 8.28437ZM9.8875 10.2094H9.2625C9.13818 10.2094 9.01895 10.16 8.93104 10.0721C8.84314 9.98417 8.79375 9.86494 8.79375 9.74062C8.79375 9.6163 8.84314 9.49708 8.93104 9.40917C9.01895 9.32126 9.13818 9.27187 9.2625 9.27187H9.8875C10.0118 9.27187 10.131 9.32126 10.219 9.40917C10.3069 9.49708 10.3563 9.6163 10.3563 9.74062C10.3563 9.86494 10.3069 9.98417 10.219 10.0721C10.131 10.16 10.0118 10.2094 9.8875 10.2094ZM9.8875 8.28437H9.2625C9.13818 8.28437 9.01895 8.23499 8.93104 8.14708C8.84314 8.05917 8.79375 7.93994 8.79375 7.81562C8.79375 7.6913 8.84314 7.57208 8.93104 7.48417C9.01895 7.39626 9.13818 7.34687 9.2625 7.34687H9.8875C10.0118 7.34687 10.131 7.39626 10.219 7.48417C10.3069 7.57208 10.3563 7.6913 10.3563 7.81562C10.3563 7.93994 10.3069 8.05917 10.219 8.14708C10.131 8.23499 10.0118 8.28437 9.8875 8.28437ZM12.1562 5.15937H1.84375V4.37812C1.84436 3.92194 1.999 3.47932 2.28259 3.12199C2.56618 2.76467 2.96212 2.51357 3.40625 2.40937V3.12812C3.40625 3.25245 3.45564 3.37167 3.54354 3.45958C3.63145 3.54749 3.75068 3.59687 3.875 3.59687C3.99932 3.59687 4.11855 3.54749 4.20646 3.45958C4.29436 3.37167 4.34375 3.25245 4.34375 3.12812V2.34687H9.65625V3.12812C9.65625 3.25245 9.70564 3.37167 9.79354 3.45958C9.88145 3.54749 10.0007 3.59687 10.125 3.59687C10.2493 3.59687 10.3685 3.54749 10.4565 3.45958C10.5444 3.37167 10.5938 3.25245 10.5938 3.12812V2.40937C11.0379 2.51357 11.4338 2.76467 11.7174 3.12199C12.001 3.47932 12.1556 3.92194 12.1562 4.37812V5.15937Z" fill="#DE7A72"/>
</svg>
