<svg width="16" height="15" viewBox="0 0 16 15" fill="none" xmlns="http://www.w3.org/2000/svg">
<path d="M8 1.875C6.19297 1.875 4.71875 3.34922 4.71875 5.15625C4.71875 6.27141 5.28594 7.25812 6.13953 7.85156C4.21531 8.6025 2.84375 10.4775 2.84375 12.6562H3.78125C3.78125 10.5947 5.27703 8.87156 7.23828 8.51062L7.53125 9.375H8.46875L8.76172 8.51062C10.723 8.87156 12.2188 10.5947 12.2188 12.6562H13.1562C13.1562 10.4775 11.7847 8.6025 9.86047 7.85156C10.7136 7.25812 11.2812 6.27141 11.2812 5.15625C11.2812 3.34922 9.80703 1.875 8 1.875ZM8 2.8125C9.29984 2.8125 10.3438 3.85641 10.3438 5.15625C10.3438 6.45609 9.29984 7.5 8 7.5C6.70016 7.5 5.65625 6.45609 5.65625 5.15625C5.65625 3.85641 6.70016 2.8125 8 2.8125ZM7.53125 9.84375L7.0625 12.6562H8.9375L8.46875 9.84375H7.53125Z" fill="#DE7A72"/>
</svg>
